<?xml version="1.0" encoding="UTF-8" standalone="no"?>
<!-- Created with Inkscape (http://www.inkscape.org/) -->
<svg
   xmlns:dc="http://purl.org/dc/elements/1.1/"
   xmlns:cc="http://web.resource.org/cc/"
   xmlns:rdf="http://www.w3.org/1999/02/22-rdf-syntax-ns#"
   xmlns:svg="http://www.w3.org/2000/svg"
   xmlns="http://www.w3.org/2000/svg"
   xmlns:sodipodi="http://sodipodi.sourceforge.net/DTD/sodipodi-0.dtd"
   xmlns:inkscape="http://www.inkscape.org/namespaces/inkscape"
   width="394.02411"
   height="362.39917"
   id="svg3363"
   sodipodi:version="0.32"
   inkscape:version="0.45"
   sodipodi:modified="true"
   version="1.0">
  <defs
     id="defs3365" />
  <sodipodi:namedview
     id="base"
     pagecolor="#ffffff"
     bordercolor="#666666"
     borderopacity="1.0"
     inkscape:pageopacity="0.0"
     inkscape:pageshadow="2"
     inkscape:zoom="0.35"
     inkscape:cx="375"
     inkscape:cy="520"
     inkscape:document-units="px"
     inkscape:current-layer="layer1"
     inkscape:window-width="748"
     inkscape:window-height="573"
     inkscape:window-x="44"
     inkscape:window-y="58" />
  <metadata
     id="metadata3368">
    <rdf:RDF>
      <cc:Work
         rdf:about="">
        <dc:format>image/svg+xml</dc:format>
        <dc:type
           rdf:resource="http://purl.org/dc/dcmitype/StillImage" />
      </cc:Work>
    </rdf:RDF>
  </metadata>
  <g
     inkscape:label="Calque 1"
     inkscape:groupmode="layer"
     id="layer1"
     transform="translate(-408.70223,-436.87688)">
    <g
       id="g1562"
       inkscape:label="Calque 1"
       transform="matrix(0.912847,0.138521,-0.138521,0.912847,445.08038,387.3448)">
      <path
         id="path3365"
         d="M 325.03125,11.96875 C 314.26248,12.315955 298.46263,17.018548 290.0625,27.34375 C 278.63043,41.395724 258.77276,37.520579 247.78125,32.09375 L 247.5625,22.21875 L 247.34375,22.21875 C 246.83554,21.606083 245.30539,21.107285 243.53125,21.03125 C 241.75713,20.955214 240.29138,21.33321 239.875,21.90625 C 239.86378,21.922576 239.85327,21.952109 239.84375,21.96875 C 239.84077,21.974331 239.81529,21.994385 239.8125,22 C 239.80991,22.005648 239.8149,22.025569 239.8125,22.03125 C 239.8103,22.036964 239.78325,22.056754 239.78125,22.0625 C 239.77764,22.074056 239.78405,22.113319 239.78125,22.125 C 239.78005,22.130871 239.78224,22.150349 239.78125,22.15625 C 239.78046,22.162181 239.78183,22.18154 239.78125,22.1875 C 239.78069,22.196483 239.78134,22.240953 239.78125,22.25 C 239.78151,22.256073 239.78078,22.27515 239.78125,22.28125 C 239.78193,22.287341 239.78036,22.306418 239.78125,22.3125 C 239.78345,22.324643 239.77823,22.362901 239.78125,22.375 C 239.78811,22.399151 239.80244,22.444807 239.8125,22.46875 C 239.81521,22.474721 239.84084,22.494043 239.84375,22.5 C 239.84685,22.505941 239.84045,22.525325 239.84375,22.53125 C 239.84724,22.537159 239.87132,22.556608 239.875,22.5625 C 239.87887,22.568375 239.90219,22.587893 239.90625,22.59375 L 239.75,22.59375 L 245.0625,279.5 C 128.18351,293.70321 71.337494,314.58885 14.750004,334.84375 C 14.749904,334.84547 14.750254,334.87331 14.750004,334.875 C 14.749754,334.87836 14.750074,334.90345 14.750004,334.90625 C 14.751224,334.90827 14.779894,334.93559 14.781254,334.9375 C 16.021034,336.07036 21.844284,343.88835 36.906254,358.15625 C 36.909444,358.15976 36.934704,358.18463 36.937504,358.1875 C 45.632874,366.43715 57.416714,380.58956 73.468754,389.5 C 90.965024,399.21215 113.27943,408.64155 142.03125,416.28125 C 252.49924,415.34655 350.01433,393.90017 379.875,383.96875 C 389.02402,380.92586 399.46027,367.3302 407.125,356.65625 C 407.17358,356.58843 407.2329,356.5055 407.28125,356.4375 C 407.29335,356.41991 407.32835,356.36969 407.34375,356.34375 C 407.35874,356.3136 407.38779,356.25044 407.40625,356.21875 C 413.46273,347.63225 417.75323,337.64342 422.125,328.6875 C 422.25015,328.62707 422.37705,328.56044 422.5,328.5 C 430.16908,312.88294 434.40628,304.375 434.40625,304.375 C 433.56294,304.55233 432.71727,304.73007 431.875,304.90625 C 432.71658,304.65764 433.56352,304.40597 434.40625,304.15625 C 420.54084,299.62989 407.67217,295.2203 394.5625,291.1875 L 395.03125,281.5 L 395.15625,281.46875 L 395.84375,273.5 L 391.53125,272.03125 L 343.8125,278.71875 C 331.13809,276.49867 317.3043,274.75103 301.625,273.625 C 284.28592,275.16031 268.0695,276.79094 252.84375,278.5625 L 249.5,116.1875 C 265.20592,122.70693 275.35892,115.201 293.53125,104.34375 C 312.62468,92.936175 328.13114,97.247871 341.4375,102.84375 L 341.3125,17.9375 C 341.22247,17.880049 340.50149,17.409474 334.9375,13.6875 C 333.14907,12.491149 329.74738,11.885397 325.53125,11.96875 C 325.3629,11.972078 325.20218,11.963239 325.03125,11.96875 z M 14.500004,334.8125 C 14.500104,334.81613 14.499974,334.84087 14.500004,334.84375 C 14.503434,334.8436 14.528444,334.84378 14.531254,334.84375 C 14.542234,334.84947 14.582774,334.8695 14.593754,334.875 C 14.593964,334.86365 14.593454,334.82347 14.593754,334.8125 C 14.590914,334.81253 14.566014,334.81231 14.562504,334.8125 C 14.559644,334.81251 14.534834,334.81241 14.531254,334.8125 C 14.530314,334.81272 14.507364,334.81264 14.500004,334.8125 z "
         style="color:#000000;fill:none;fill-opacity:1;fill-rule:evenodd;stroke:#000000;stroke-width:7;stroke-linecap:round;stroke-linejoin:round;marker:none;marker-start:none;marker-mid:none;marker-end:none;stroke-miterlimit:4;stroke-dasharray:none;stroke-dashoffset:0;stroke-opacity:1;visibility:visible;display:inline;overflow:visible" />
      <path
         sodipodi:nodetypes="cccc"
         id="rect3308"
         d="M 369.92282,281.42549 L 395.04612,281.42549 L 392.65343,329.75792 L 369.92282,281.42549 z "
         style="color:#000000;fill:#4b3c21;fill-opacity:1;fill-rule:evenodd;stroke:#000000;stroke-width:1;stroke-linecap:round;stroke-linejoin:round;marker:none;marker-start:none;marker-mid:none;marker-end:none;stroke-miterlimit:4;stroke-dasharray:none;stroke-dashoffset:0;stroke-opacity:1;visibility:visible;display:inline;overflow:visible" />
      <path
         sodipodi:nodetypes="csscczcc"
         id="path1566"
         d="M 246.55394,31.454559 C 257.23169,37.188855 278.20459,41.939093 290.07725,27.345562 C 301.94992,12.75204 328.58022,9.4389751 334.93907,13.692668 C 341.29793,17.946352 341.29793,17.946352 341.29793,17.946352 L 341.42689,102.83116 C 328.12052,97.235282 312.61436,92.932255 293.52093,104.33983 C 274.4275,115.7474 264.21418,123.44462 247.08131,115.07312 L 246.55394,31.454559 z "
         style="fill:#1d1d1d;fill-opacity:1;fill-rule:evenodd;stroke:#000000;stroke-width:1;stroke-linecap:butt;stroke-linejoin:miter;stroke-miterlimit:4;stroke-dasharray:none;stroke-opacity:1" />
      <g
         style="stroke:#000000;stroke-width:3.26209831;stroke-miterlimit:4;stroke-dasharray:none;stroke-opacity:1"
         transform="matrix(0.309804,-0.103018,2.11e-2,0.296316,289.0755,86.77025)"
         id="g2284">
        <path
           style="opacity:1;color:#000000;fill:#bbbbbb;fill-opacity:1;fill-rule:evenodd;stroke:#000000;stroke-width:3.26209831;stroke-linecap:round;stroke-linejoin:round;marker:none;marker-start:none;marker-mid:none;marker-end:none;stroke-miterlimit:4;stroke-dasharray:none;stroke-dashoffset:0;stroke-opacity:1;visibility:visible;display:inline;overflow:visible"
           d="M -72.142857,-117.63782 L 109.28571,13.076468 C 89.124923,31.893202 144.43106,65.321761 135,12.362182 C 196.47587,-1.4336621 133.58065,-38.264533 123.57143,-6.2092465 L -50.714286,-136.92353 C -33.554541,-161.24061 -91.303739,-173.9921 -75,-139.06639 C -119.28571,-154.78067 -96.428571,-90.494966 -72.142857,-117.63782 z "
           id="path2272"
           sodipodi:nodetypes="ccccccc" />
        <path
           style="opacity:1;color:#000000;fill:#bbbbbb;fill-opacity:1;fill-rule:evenodd;stroke:#000000;stroke-width:3.26209831;stroke-linecap:round;stroke-linejoin:round;marker:none;marker-start:none;marker-mid:none;marker-end:none;stroke-miterlimit:4;stroke-dasharray:none;stroke-dashoffset:0;stroke-opacity:1;visibility:visible;display:inline;overflow:visible"
           d="M -67.125993,6.1325573 L 131.14783,-97.260103 C 138.90514,-70.795958 193.61207,-105.19638 142.05869,-120.55577 C 157.34321,-181.67852 96.187945,-142.02559 120.33283,-118.6857 L -74.732918,-21.674941 C -88.752461,-47.928124 -126.08238,-2.0582251 -87.554931,-0.93889126 C -121.48515,31.571155 -53.782201,40.021695 -67.125993,6.1325573 z "
           id="path2274"
           sodipodi:nodetypes="ccccccc" />
        <path
           style="opacity:1;color:#000000;fill:#000000;fill-opacity:0.71924295;fill-rule:evenodd;stroke:#000000;stroke-width:3.26209831;stroke-linecap:round;stroke-linejoin:round;marker:none;marker-start:none;marker-mid:none;marker-end:none;stroke-miterlimit:4;stroke-dasharray:none;stroke-dashoffset:0;stroke-opacity:1;visibility:visible;display:inline;overflow:visible"
           d="M 31,-135.59375 C -8.0881411,-134.22157 -39.28125,-108.42286 -39.28125,-76.875 C -39.28125,-54.063059 -22.968488,-34.228606 0.84375,-24.5 L 0.84375,26.40625 L 67.71875,26.40625 L 67.71875,-24.5 C 91.530987,-34.228607 107.84375,-54.06306 107.84375,-76.875 C 107.84375,-109.30063 74.890061,-135.59375 34.28125,-135.59375 C 33.805366,-135.59375 33.348742,-135.60094 32.875,-135.59375 C 32.718938,-135.59138 32.562075,-135.5969 32.40625,-135.59375 C 32.251036,-135.59062 32.061227,-135.59765 31.90625,-135.59375 C 31.751879,-135.58986 31.62288,-135.5984 31.46875,-135.59375 C 31.315222,-135.58912 31.153287,-135.59913 31,-135.59375 z "
           id="path2276" />
        <path
           style="opacity:1;color:#000000;fill:#bbbbbb;fill-opacity:1;fill-rule:evenodd;stroke:#000000;stroke-width:3.26209831;stroke-linecap:round;stroke-linejoin:round;marker:none;marker-start:none;marker-mid:none;marker-end:none;stroke-miterlimit:4;stroke-dasharray:none;stroke-dashoffset:0;stroke-opacity:1;visibility:visible;display:inline;overflow:visible"
           d="M 31.919139,-135.59317 C -7.5998582,-134.59806 -39.267452,-108.65766 -39.267452,-76.861876 C -39.267452,-54.049936 -22.974124,-34.233711 0.83811401,-24.505105 L 0.83811401,26.415507 L 67.733315,26.415507 L 67.733315,-24.505105 C 91.545552,-34.233711 107.83888,-54.049936 107.83888,-76.861876 C 107.83888,-109.28751 74.894525,-135.59317 34.285714,-135.59317 C 33.809829,-135.59317 33.339511,-135.60036 32.865769,-135.59317 C 32.709706,-135.5908 32.548279,-135.59632 32.392454,-135.59317 C 32.237238,-135.59004 32.074116,-135.59707 31.919139,-135.59317 z M 6.6125582,-118.63643 C 6.6644348,-118.63862 6.7183739,-118.63479 6.7703299,-118.63643 C 6.9280464,-118.64143 7.0852155,-118.63643 7.243645,-118.63643 C 20.762968,-118.63643 31.729813,-100.36362 31.729813,-77.84451 C 31.729814,-55.3254 20.762968,-37.052589 7.243645,-37.052589 C -6.2756774,-37.052589 -17.242523,-55.325401 -17.242523,-77.84451 C -17.242523,-100.01279 -6.6159687,-118.07917 6.6125582,-118.63643 z M 60.854468,-118.63643 C 61.012185,-118.64143 61.169354,-118.63643 61.327784,-118.63643 C 74.847109,-118.63643 85.813951,-100.36362 85.813951,-77.84451 C 85.813954,-55.3254 74.847107,-37.052589 61.327784,-37.052589 C 47.808462,-37.052589 36.841616,-55.325401 36.841616,-77.84451 C 36.841617,-100.09972 47.553717,-118.21501 60.854468,-118.63643 z "
           id="path2240" />
        <rect
           y="-24.146965"
           x="1.0449641"
           height="51.238281"
           width="16.710531"
           id="rect2262"
           style="opacity:1;color:#000000;fill:#bbbbbb;fill-opacity:1;fill-rule:evenodd;stroke:#000000;stroke-width:3.26209831;stroke-linecap:round;stroke-linejoin:round;marker:none;marker-start:none;marker-mid:none;marker-end:none;stroke-miterlimit:4;stroke-dasharray:none;stroke-dashoffset:0;stroke-opacity:1;visibility:visible;display:inline;overflow:visible" />
        <rect
           y="-24.146965"
           x="17.755495"
           height="51.238281"
           width="16.710531"
           id="rect2264"
           style="opacity:1;color:#000000;fill:#bbbbbb;fill-opacity:1;fill-rule:evenodd;stroke:#000000;stroke-width:3.26209831;stroke-linecap:round;stroke-linejoin:round;marker:none;marker-start:none;marker-mid:none;marker-end:none;stroke-miterlimit:4;stroke-dasharray:none;stroke-dashoffset:0;stroke-opacity:1;visibility:visible;display:inline;overflow:visible" />
        <rect
           y="-24.146965"
           x="34.466022"
           height="51.238281"
           width="16.710531"
           id="rect2266"
           style="opacity:1;color:#000000;fill:#bbbbbb;fill-opacity:1;fill-rule:evenodd;stroke:#000000;stroke-width:3.26209831;stroke-linecap:round;stroke-linejoin:round;marker:none;marker-start:none;marker-mid:none;marker-end:none;stroke-miterlimit:4;stroke-dasharray:none;stroke-dashoffset:0;stroke-opacity:1;visibility:visible;display:inline;overflow:visible" />
        <rect
           style="opacity:1;color:#000000;fill:#bbbbbb;fill-opacity:1;fill-rule:evenodd;stroke:#000000;stroke-width:3.26209831;stroke-linecap:round;stroke-linejoin:round;marker:none;marker-start:none;marker-mid:none;marker-end:none;stroke-miterlimit:4;stroke-dasharray:none;stroke-dashoffset:0;stroke-opacity:1;visibility:visible;display:inline;overflow:visible"
           id="rect2260"
           width="16.710531"
           height="51.238281"
           x="51.176556"
           y="-24.146965" />
      </g>
      <path
         sodipodi:nodetypes="cccc"
         id="path2181"
         d="M 434.39998,304.15508 C 392.45542,290.46231 359.64819,277.77958 301.61918,273.61216 C 145.13025,287.46869 79.739486,311.5586 14.687391,334.84293 C 94.984537,386.5075 251.21289,358.43784 434.39998,304.15508 z "
         style="color:#000000;fill:#b28f53;fill-opacity:1;fill-rule:evenodd;stroke:#000000;stroke-width:1;stroke-linecap:round;stroke-linejoin:round;marker:none;marker-start:none;marker-mid:none;marker-end:none;stroke-miterlimit:4;stroke-dasharray:none;stroke-dashoffset:0;stroke-opacity:1;visibility:visible;display:inline;overflow:visible" />
      <path
         sodipodi:nodetypes="cccc"
         id="path2183"
         d="M 417.51249,303.15035 C 378.54713,290.43014 355.10534,281.77667 301.19799,277.90525 C 167.54883,289.56661 86.722174,313.67365 26.944683,333.98106 C 124.30288,353.51404 315.74157,323.95344 417.51249,303.15035 z "
         style="color:#000000;fill:#4b3c21;fill-opacity:1;fill-rule:evenodd;stroke:#000000;stroke-width:1;stroke-linecap:round;stroke-linejoin:round;marker:none;marker-start:none;marker-mid:none;marker-end:none;stroke-miterlimit:4;stroke-dasharray:none;stroke-dashoffset:0;stroke-opacity:1;visibility:visible;display:inline;overflow:visible" />
      <path
         sodipodi:nodetypes="cccc"
         id="path2204"
         d="M 183.71599,312.49355 L 185.40519,318.3196 L 237.59214,331.80511 L 250.60168,330.26163"
         style="color:#000000;fill:#67522e;fill-opacity:1;fill-rule:evenodd;stroke:#000000;stroke-width:1;stroke-linecap:round;stroke-linejoin:round;marker:none;marker-start:none;marker-mid:none;marker-end:none;stroke-miterlimit:4;stroke-dasharray:none;stroke-dashoffset:0;stroke-opacity:1;visibility:visible;display:inline;overflow:visible" />
      <path
         sodipodi:nodetypes="ccccc"
         id="path1580"
         d="M 299.3998,323.78785 L 240.66616,306.90825 L 183.5731,312.58785 L 250.667,330.27931 C 266.46435,328.51485 282.92436,326.15572 299.3998,323.78785 z "
         style="color:#000000;fill:#7d6438;fill-opacity:1;fill-rule:evenodd;stroke:#000000;stroke-width:1;stroke-linecap:round;stroke-linejoin:round;marker:none;marker-start:none;marker-mid:none;marker-end:none;stroke-miterlimit:4;stroke-dasharray:none;stroke-dashoffset:0;stroke-opacity:1;visibility:visible;display:inline;overflow:visible" />
      <path
         sodipodi:nodetypes="ccccc"
         id="rect2231"
         d="M 239.76178,22.607783 L 247.56845,22.216947 L 253.66643,318.48338 C 253.56831,321.69332 246.22584,321.81182 245.85977,318.87422 L 239.76178,22.607783 z "
         style="color:#000000;fill:#4b3c21;fill-opacity:1;fill-rule:evenodd;stroke:#000000;stroke-width:1;stroke-linecap:round;stroke-linejoin:round;marker:none;marker-start:none;marker-mid:none;marker-end:none;stroke-miterlimit:4;stroke-dasharray:none;stroke-dashoffset:0;stroke-opacity:1;visibility:visible;display:inline;overflow:visible" />
      <path
         sodipodi:nodetypes="ccscc"
         id="path2200"
         d="M 73.469108,389.48786 C 77.760879,389.71241 398.99728,358.00512 407.4702,356.22292 C 399.77809,366.96131 389.15474,380.89294 379.8767,383.97874 C 350.01604,393.91015 252.49412,415.3339 142.02613,416.2686 C 113.2743,408.62889 90.965378,399.20001 73.469108,389.48786 z "
         style="fill:#7d6438;fill-opacity:1;fill-rule:evenodd;stroke:#000000;stroke-width:1;stroke-linecap:round;stroke-linejoin:round;stroke-miterlimit:4;stroke-dasharray:none;stroke-opacity:1" />
      <path
         sodipodi:nodetypes="ccccc"
         id="path1584"
         d="M 36.71242,358.13695 C 43.368462,361.06325 420.4993,328.62645 422.3986,328.12697 C 417.85826,337.37272 413.45694,347.78649 407.11119,356.64534 C 384.74867,366.77223 131.46258,413.43686 73.469108,389.48786 C 57.328241,380.5281 45.421074,366.36671 36.71242,358.13695 z "
         style="fill:#745c33;fill-opacity:1;fill-rule:evenodd;stroke:#000000;stroke-width:1;stroke-linecap:round;stroke-linejoin:round;stroke-miterlimit:4;stroke-dasharray:none;stroke-opacity:1" />
      <path
         sodipodi:nodetypes="ccccc"
         id="path1306"
         d="M 14.488183,334.85358 C 96.511481,354.03397 253.55654,342.40982 434.39993,304.38272 C 434.39993,304.38272 430.17666,312.88579 422.50758,328.50285 C 364.80129,356.86982 64.7102,384.02611 37.289378,358.46629 C 19.886054,342.01998 14.546887,334.05563 14.488183,334.85358 z "
         style="fill:#6e5831;fill-opacity:1;fill-rule:evenodd;stroke:#000000;stroke-width:1;stroke-linecap:round;stroke-linejoin:round;stroke-miterlimit:4;stroke-dasharray:none;stroke-opacity:1" />
      <path
         sodipodi:nodetypes="cccc"
         id="path2193"
         d="M 301.52854,277.99637 C 301.52854,277.99637 310.20869,300.4949 299.76086,323.56481 C 354.89119,316.43977 417.0839,303.14318 417.0839,303.14318 C 382.05572,290.75648 341.13116,279.68173 301.52854,277.99637 z "
         style="color:#000000;fill:#43341d;fill-opacity:1;fill-rule:evenodd;stroke:#000000;stroke-width:1;stroke-linecap:round;stroke-linejoin:round;marker:none;marker-start:none;marker-mid:none;marker-end:none;stroke-miterlimit:4;stroke-dasharray:none;stroke-dashoffset:0;stroke-opacity:1;visibility:visible;display:inline;overflow:visible" />
      <path
         transform="matrix(0.938512,4.022296e-2,7.384329e-2,0.953434,58.44519,190.5215)"
         d="M 216.04637 -185.23253 A 4.1353121 1.4836615 0 1 1  207.77574,-185.23253 A 4.1353121 1.4836615 0 1 1  216.04637 -185.23253 z"
         sodipodi:ry="1.4836615"
         sodipodi:rx="4.1353121"
         sodipodi:cy="-185.23253"
         sodipodi:cx="211.91106"
         id="path2236"
         style="color:#000000;fill:#4b3c21;fill-opacity:1;fill-rule:evenodd;stroke:#000000;stroke-width:1.05890453;stroke-linecap:round;stroke-linejoin:round;marker:none;marker-start:none;marker-mid:none;marker-end:none;stroke-miterlimit:4;stroke-dasharray:none;stroke-dashoffset:0;stroke-opacity:1;visibility:visible;display:inline;overflow:visible"
         sodipodi:type="arc" />
      <g
         style="fill:#4b3c21;fill-opacity:1;stroke:#000000;stroke-width:0.73165357;stroke-miterlimit:4;stroke-dasharray:none;stroke-opacity:1"
         transform="matrix(1.119567,0.235741,0,1.668549,-92.04131,33.20151)"
         id="g3303">
        <rect
           style="opacity:1;color:#000000;fill:#4b3c21;fill-opacity:1;fill-rule:evenodd;stroke:#000000;stroke-width:0.75858331;stroke-linecap:round;stroke-linejoin:round;marker:none;marker-start:none;marker-mid:none;marker-end:none;stroke-miterlimit:4;stroke-dasharray:none;stroke-dashoffset:0;stroke-opacity:1;visibility:visible;display:inline;overflow:visible"
           id="rect3294"
           width="45.528324"
           height="4.9017062"
           x="430.42847"
           y="200.53876"
           transform="matrix(0.969613,-0.244644,-0.128168,0.991752,0,0)" />
        <path
           transform="matrix(0.969613,-0.244644,-0.128168,0.991752,0,0)"
           style="color:#000000;fill:#4b3c21;fill-opacity:1;fill-rule:evenodd;stroke:#000000;stroke-width:0.75858331;stroke-linecap:round;stroke-linejoin:round;marker:none;marker-start:none;marker-mid:none;marker-end:none;stroke-miterlimit:4;stroke-dasharray:none;stroke-dashoffset:0;stroke-opacity:1;visibility:visible;display:inline;overflow:visible"
           d="M 430.42847,200.53876 L 475.95679,200.53876 L 471.80189,199.17361 L 424.79921,198.3643 L 430.42847,200.53876 z "
           id="rect3298"
           sodipodi:nodetypes="ccccc" />
        <path
           transform="matrix(0.969613,-0.244644,-0.128168,0.991752,0,0)"
           style="color:#000000;fill:#4b3c21;fill-opacity:1;fill-rule:evenodd;stroke:#000000;stroke-width:0.75858331;stroke-linecap:round;stroke-linejoin:round;marker:none;marker-start:none;marker-mid:none;marker-end:none;stroke-miterlimit:4;stroke-dasharray:none;stroke-dashoffset:0;stroke-opacity:1;visibility:visible;display:inline;overflow:visible"
           d="M 430.42847,200.53876 L 430.40693,205.44029 L 425.74495,203.44078 L 424.79921,198.3643 L 430.42847,200.53876 z "
           id="path3301"
           sodipodi:nodetypes="ccccc" />
      </g>
      <path
         sodipodi:nodetypes="cc"
         id="path1332"
         d="M 249.12888,30.105861 L 251.14918,122.66109"
         style="fill:none;fill-opacity:0.75;fill-rule:evenodd;stroke:#000000;stroke-width:3.9000001;stroke-linecap:butt;stroke-linejoin:miter;stroke-miterlimit:4;stroke-dasharray:none;stroke-opacity:1" />
    </g>
  </g>
</svg>
